<svg id="Layer_1" data-name="Layer 1" xmlns="http://www.w3.org/2000/svg" viewBox="0 0 63.27 64.58"><defs><style>.cls-1{fill:#0a1a24;stroke:#fff;stroke-miterlimit:10}</style></defs><path class="cls-1" d="M106.1 268.11a46.86 46.86 0 01-4.62 7.22 48.78 48.78 0 00-6.59-4.81 40.44 40.44 0 004.11-5.06 23.06 23.06 0 017.1 2.65zm-2.34-6.6a25.84 25.84 0 00-12.41 3.15 37.36 37.36 0 017.61.8 23.06 23.06 0 017.14 2.65 11.9 11.9 0 013.77 3.46 33 33 0 003.4-8.25 25.74 25.74 0 00-9.51-1.81zm-8.87 9a34.94 34.94 0 01-6.62 5.54 32.85 32.85 0 003.66 8.38 45.33 45.33 0 009.55-9.11 48.78 48.78 0 00-6.59-4.8zm-3.54-5.86a24.21 24.21 0 00-3.35 2.17 64.64 64.64 0 016.86 3.7 40.44 40.44 0 004.14-5.06 37.36 37.36 0 00-7.65-.8zM88 266.82q-.63.46-1.23 1a37.71 37.71 0 001.47 8.25 34.94 34.94 0 006.62-5.54 64.64 64.64 0 00-6.86-3.71zm-1.23 1a24.58 24.58 0 00-2.7 2.7 47.19 47.19 0 00-1.35 8.33 30.55 30.55 0 005.53-2.8 37.71 37.71 0 01-1.45-8.24zm-7.9 12.11a18.36 18.36 0 003.84-1.06 47.19 47.19 0 011.35-8.33 25.74 25.74 0 00-5.16 9.38zm9.37-3.86a30.55 30.55 0 01-5.53 2.8 38.31 38.31 0 00.5 10.39 45.13 45.13 0 008.69-4.81 32.85 32.85 0 01-3.63-8.39zm-5.53 2.8a18.36 18.36 0 01-3.84 1.06 25.72 25.72 0 00-1.13 7.59A25.15 25.15 0 0078 291a31.91 31.91 0 005.23-1.75 38.31 38.31 0 01-.49-10.39zm.5 10.39A31.91 31.91 0 0178 291a25.28 25.28 0 002.22 7.54c.11-.06 2.1-1.14 5.07-3.07a25 25 0 01-2.05-6.22zm-1.47 12.1a24.6 24.6 0 01-1.53-2.81m11.7-14.1a45.13 45.13 0 01-8.69 4.81 25 25 0 002.06 6.22A101.81 101.81 0 0095 288.4a24.2 24.2 0 01-3.07-3.96zm9.55-9.11a45.33 45.33 0 01-9.55 9.11 24.2 24.2 0 003 4 76.13 76.13 0 009.8-9.59 25.62 25.62 0 00-3.23-3.53zm4.62-7.22a46.86 46.86 0 01-4.62 7.22 25.62 25.62 0 013.3 3.48 48.69 48.69 0 005.09-7.24 11.9 11.9 0 00-3.75-3.47zm7.17-4.79a23.12 23.12 0 012.27 1" transform="translate(-77.27 -248.92)"/><path d="M140.55 261.52c-5.52-.1-12.55 1-17.24 4.13-2.18 1.45-3.38 3.72-4.51 6a96.66 96.66 0 01-7.29 12 157.24 157.24 0 01-18.73 21.93 21.36 21.36 0 008.87 1.91 21.59 21.59 0 0021.59-21.58 21.07 21.07 0 00-.65-5.24s-6.71 9.8-10.85 10.39a46.53 46.53 0 005.17-6.49c2.63-3.95 5.35-9.32 5.68-15a26 26 0 11-40.82 31.75c6.43-4.18 13.35-7.68 19-13a82.94 82.94 0 0011-13.7c2.51-3.73 4.67-9.07 3.68-13.62-1.65-7.57-12.79-13.16-19.93-11.67 8.27-1.72 26.81 1.55 25.6 13.68.09-.87 5.25-2 5.86-2.19a23.64 23.64 0 0113.57.7z" transform="translate(-77.27 -248.92)" fill="#e01f26"/><circle class="cls-1" cx="47.21" cy="4.71" r="3.93"/></svg>